<svg id="Layer_1" data-name="Layer 1" xmlns="http://www.w3.org/2000/svg" viewBox="0 0 288.32 179.74"><defs><style>.cls-1{fill:#231f20;}.cls-2{fill:#fff;}.cls-3,.cls-4{fill:none;stroke:#231f20;}.cls-3{stroke-miterlimit:10;}.cls-4{stroke-linejoin:round;stroke-width:3px;}</style></defs><path class="cls-1" d="M219.84,179.74V173a.78.78,0,0,1-.22.06,4.67,4.67,0,0,1-.49.1l-.48.09-.22,0v-.81a2.73,2.73,0,0,0,.4-.11,3.25,3.25,0,0,0,.46-.17,2,2,0,0,0,.45-.25,1.5,1.5,0,0,0,.36-.35h.81v8.1Z"/><path class="cls-1" d="M222.38,179.74l2.18-8.1h.93l-2.19,8.1Z"/><path class="cls-1" d="M228.53,179.74v-2.17h-2.35v-1.12l2.11-4.81h1.26v5h.91v.95h-.91v2.17Zm-1.32-3.12h1.32v-3.68Z"/><path class="cls-1" d="M231.39,174.29l-.19-.4a.46.46,0,0,0,.43-.29,2.17,2.17,0,0,0,.11-.83h-.53v-1.13h1.17v1a2.72,2.72,0,0,1-.22,1.22A.83.83,0,0,1,231.39,174.29Zm1.76,0-.19-.4a.46.46,0,0,0,.43-.29,2.17,2.17,0,0,0,.11-.83H233v-1.13h1.17v1a2.72,2.72,0,0,1-.22,1.22A.83.83,0,0,1,233.15,174.29Z"/><polygon id="bgcolor" class="cls-2" points="238.9 51.08 213.05 51.08 145.02 51.08 45.27 51.08 45.27 135.33 213.05 135.33 213.05 81.35 238.9 81.35 238.9 51.08"/><line class="cls-3" x1="45.27" y1="51.08" x2="45.27" y2="8.08"/><line class="cls-3" x1="238.9" y1="51.08" x2="238.9" y2="8.08"/><line class="cls-3" x1="33.74" y1="20.55" x2="250.44" y2="20.55"/><line class="cls-3" x1="238.9" y1="81.35" x2="276.11" y2="81.35"/><line class="cls-3" x1="213.05" y1="135.33" x2="276.11" y2="135.33"/><line class="cls-3" x1="204.36" y1="158.22" x2="248.59" y2="158.22"/><line class="cls-3" x1="238.79" y1="81.35" x2="238.79" y2="167.89"/><line class="cls-3" x1="213.05" y1="135.33" x2="213.05" y2="167.89"/><line class="cls-3" x1="268.43" y1="70.07" x2="268.43" y2="146.04"/><polygon class="cls-4" points="238.9 51.08 213.05 51.08 145.02 51.08 45.27 51.08 45.27 135.33 213.05 135.33 213.05 81.35 238.9 81.35 238.9 51.08"/><line class="cls-3" x1="8.06" y1="51.08" x2="45.27" y2="51.08"/><line class="cls-3" x1="8.06" y1="135.33" x2="45.27" y2="135.33"/><line class="cls-3" x1="19.03" y1="41.43" x2="19.03" y2="144.98"/><path class="cls-1" d="M288.32,115h-6.7s0,.08.06.23.06.3.1.48.06.34.09.48,0,.21,0,.22h-.81L281,116c-.05-.15-.11-.31-.17-.46a2.46,2.46,0,0,0-.25-.45,1.55,1.55,0,0,0-.35-.37V114h8.1Z"/><path class="cls-1" d="M288.32,112.48l-8.1-2.18v-.93l8.1,2.19Z"/><path class="cls-1" d="M288.32,108.67h-.76l-3.21-2.06-.67-.42a3.35,3.35,0,0,0-.66-.32,2.15,2.15,0,0,0-.79-.13,1.78,1.78,0,0,0-.88.18.65.65,0,0,0-.32.63.79.79,0,0,0,.21.59,1.08,1.08,0,0,0,.55.29,2.82,2.82,0,0,0,.73.08h.27v1.07h-.28a3.63,3.63,0,0,1-1.26-.19,1.6,1.6,0,0,1-.81-.63,2,2,0,0,1-.29-1.16,1.83,1.83,0,0,1,.55-1.46,2.27,2.27,0,0,1,1.54-.48,2.82,2.82,0,0,1,.91.13,3.67,3.67,0,0,1,.73.32l.7.44,2.84,1.86v-2.56h.9Z"/><path class="cls-1" d="M282.87,101.76l-.4.19a.46.46,0,0,0-.29-.42,2.17,2.17,0,0,0-.83-.12v.53h-1.13v-1.17h1a2.67,2.67,0,0,1,1.21.22A.86.86,0,0,1,282.87,101.76Zm0,1.76-.4.19a.45.45,0,0,0-.29-.42,2.17,2.17,0,0,0-.83-.12v.53h-1.13v-1.17h1a2.67,2.67,0,0,1,1.21.22A.86.86,0,0,1,282.87,103.52Z"/><path class="cls-1" d="M8.17,104.38H1.47a.78.78,0,0,1,.06.22c0,.14.07.31.1.48s.06.34.09.49a2.13,2.13,0,0,1,0,.22H1c0-.12-.06-.25-.11-.4s-.1-.3-.17-.46a2.46,2.46,0,0,0-.25-.45,1.76,1.76,0,0,0-.35-.37v-.8h8.1Z"/><path class="cls-1" d="M8.26,99.75A2.14,2.14,0,0,1,8,100.84a1.54,1.54,0,0,1-.72.66,2.53,2.53,0,0,1-1.11.23H5.91v-1.06h.18a3.09,3.09,0,0,0,.65-.09.89.89,0,0,0,.46-.27,1,1,0,0,0,0-1.15,1,1,0,0,0-.53-.28,4.58,4.58,0,0,0-.78-.06,2,2,0,0,0-1,.23,1,1,0,0,0-.44.83.15.15,0,0,0,0,.07V100H3.31v-.14a1,1,0,0,0-.3-.81,1.38,1.38,0,0,0-.93-.25A1.83,1.83,0,0,0,1.2,99a.77.77,0,0,0-.33.74.73.73,0,0,0,.36.72,2.46,2.46,0,0,0,.94.21h.17v1.06H2.07A2.53,2.53,0,0,1,1,101.5a1.51,1.51,0,0,1-.71-.66A2.21,2.21,0,0,1,0,99.74a2.24,2.24,0,0,1,.25-1.12A1.62,1.62,0,0,1,1,98a2.73,2.73,0,0,1,1.12-.21,2,2,0,0,1,1.17.31,1.59,1.59,0,0,1,.6.85,1.36,1.36,0,0,1,.38-.63,1.93,1.93,0,0,1,.69-.4,3.05,3.05,0,0,1,1-.13,3.61,3.61,0,0,1,1.25.19,1.69,1.69,0,0,1,.83.64A2.05,2.05,0,0,1,8.26,99.75Z"/><path class="cls-1" d="M8.17,97.07.07,94.88V94l8.1,2.19Z"/><path class="cls-1" d="M8.17,92H1.47a.78.78,0,0,1,.06.22c0,.14.07.31.1.49s.06.33.09.48a2.13,2.13,0,0,1,0,.22H1c0-.12-.06-.25-.11-.4s-.1-.3-.17-.46a2.46,2.46,0,0,0-.25-.45,1.76,1.76,0,0,0-.35-.37v-.8h8.1Z"/><path class="cls-1" d="M8.26,87.14a1.72,1.72,0,0,1-.36,1.13,2,2,0,0,1-1,.65,4.05,4.05,0,0,1-1.34.2H2.87A5.37,5.37,0,0,1,1.43,89a2.14,2.14,0,0,1-1-.62A1.72,1.72,0,0,1,0,87.14a2.29,2.29,0,0,1,.23-1.07A1.6,1.6,0,0,1,.9,85.4,2.2,2.2,0,0,1,2,85.16h.12v1.08a1.72,1.72,0,0,0-.9.19.9.9,0,0,0-.13,1.22,1.29,1.29,0,0,0,.57.31,3.73,3.73,0,0,0,1,.11H3.84a1.13,1.13,0,0,1-.4-.46,1.47,1.47,0,0,1-.16-.72,1.7,1.7,0,0,1,.29-1,1.5,1.5,0,0,1,.81-.54,4.18,4.18,0,0,1,1.24-.17A4,4,0,0,1,7,85.33a2,2,0,0,1,1,.63A1.83,1.83,0,0,1,8.26,87.14Zm-.89,0a.77.77,0,0,0-.2-.56,1.16,1.16,0,0,0-.55-.29,2.9,2.9,0,0,0-.74-.08,8.2,8.2,0,0,0-.89,0,1.3,1.3,0,0,0-.66.24.77.77,0,0,0-.24.65,1.06,1.06,0,0,0,.08.4.81.81,0,0,0,.21.3,1.32,1.32,0,0,0,.26.22H5.85A3,3,0,0,0,6.61,88a1.2,1.2,0,0,0,.56-.29A.73.73,0,0,0,7.37,87.14Z"/><path class="cls-1" d="M2.72,82.14l-.4.19A.46.46,0,0,0,2,81.9a2.2,2.2,0,0,0-.83-.11v.53H.07V81.15H1a2.67,2.67,0,0,1,1.21.22A.84.84,0,0,1,2.72,82.14Zm0,1.76-.4.18A.46.46,0,0,0,2,83.66a2.2,2.2,0,0,0-.83-.11v.53H.07V82.91H1a2.67,2.67,0,0,1,1.21.22A.84.84,0,0,1,2.72,83.9Z"/><path class="cls-1" d="M127.53,8.17V1.47a.78.78,0,0,1-.22.06l-.49.1-.48.09-.22,0V1l.4-.11c.15,0,.3-.1.46-.17a3.37,3.37,0,0,0,.45-.25,1.71,1.71,0,0,0,.36-.35h.81v8.1Z"/><path class="cls-1" d="M133.78,8.17V1.47a.78.78,0,0,1-.22.06l-.49.1-.48.09-.22,0V1l.4-.11c.15,0,.3-.1.46-.17a3.37,3.37,0,0,0,.45-.25A1.71,1.71,0,0,0,134,.07h.81v8.1Z"/><path class="cls-1" d="M138.46,8.25A2.1,2.1,0,0,1,137.3,8a1.57,1.57,0,0,1-.61-.81,3.63,3.63,0,0,1-.19-1.26h1.07a4,4,0,0,0,.06.7,1.16,1.16,0,0,0,.26.57.75.75,0,0,0,.59.23.72.72,0,0,0,.63-.26,1.31,1.31,0,0,0,.24-.68,7.43,7.43,0,0,0,.05-1,6,6,0,0,0-.06-.93,1.11,1.11,0,0,0-.25-.6.79.79,0,0,0-.6-.2.85.85,0,0,0-.56.2,1.52,1.52,0,0,0-.34.47h-.91V.07h3.49V1.14h-2.52l-.07,2.24a1.45,1.45,0,0,1,.5-.33,1.74,1.74,0,0,1,.67-.12,1.57,1.57,0,0,1,1,.31,1.72,1.72,0,0,1,.53.85,4.63,4.63,0,0,1,.15,1.24,6.88,6.88,0,0,1-.09,1.15,2.89,2.89,0,0,1-.31.94,1.65,1.65,0,0,1-.62.61A2,2,0,0,1,138.46,8.25Z"/><path class="cls-1" d="M141.08,8.17l2.18-8.1h.93L142,8.17Z"/><path class="cls-1" d="M146.19,8.17V1.47a.78.78,0,0,1-.22.06l-.49.1-.48.09-.22,0V1l.4-.11c.15,0,.3-.1.46-.17a3.37,3.37,0,0,0,.45-.25,1.71,1.71,0,0,0,.36-.35h.81v8.1Z"/><path class="cls-1" d="M151,8.26a1.77,1.77,0,0,1-1.14-.36,2,2,0,0,1-.64-1A4.05,4.05,0,0,1,149,5.6V2.87a5.35,5.35,0,0,1,.18-1.44,2.14,2.14,0,0,1,.62-1A1.72,1.72,0,0,1,151,0a2.32,2.32,0,0,1,1.07.23,1.6,1.6,0,0,1,.67.67A2.32,2.32,0,0,1,153,2,.11.11,0,0,0,153,2v.07h-1.08a1.72,1.72,0,0,0-.19-.9.9.9,0,0,0-1.22-.13,1.2,1.2,0,0,0-.31.57,3.73,3.73,0,0,0-.11,1V3.84a1.23,1.23,0,0,1,.46-.41,1.57,1.57,0,0,1,.72-.15,1.7,1.7,0,0,1,1,.29,1.5,1.5,0,0,1,.54.81A4.19,4.19,0,0,1,153,5.62a4,4,0,0,1-.2,1.33,1.9,1.9,0,0,1-.64,1A1.78,1.78,0,0,1,151,8.26Zm0-.89a.77.77,0,0,0,.56-.2,1.16,1.16,0,0,0,.29-.55,3.43,3.43,0,0,0,.08-.74,8.2,8.2,0,0,0,0-.89,1.3,1.3,0,0,0-.24-.66.77.77,0,0,0-.65-.24,1.06,1.06,0,0,0-.4.08,1,1,0,0,0-.31.21,1.71,1.71,0,0,0-.21.26V5.85a3,3,0,0,0,.09.76,1.19,1.19,0,0,0,.28.56A.77.77,0,0,0,151,7.37Z"/><path class="cls-1" d="M154.25,2.72l-.19-.4a.46.46,0,0,0,.43-.29,2.43,2.43,0,0,0,.11-.83h-.53V.07h1.17V1A2.67,2.67,0,0,1,155,2.25.84.84,0,0,1,154.25,2.72Zm1.76,0-.19-.4a.46.46,0,0,0,.43-.29,2.43,2.43,0,0,0,.11-.83h-.53V.07H157V1a2.67,2.67,0,0,1-.22,1.21A.84.84,0,0,1,156,2.72Z"/></svg>