<?xml version="1.0" encoding="utf-8"?>
<!-- Generator: Adobe Illustrator 25.4.1, SVG Export Plug-In . SVG Version: 6.00 Build 0)  -->
<svg version="1.1" id="Layer_1" xmlns="http://www.w3.org/2000/svg" xmlns:xlink="http://www.w3.org/1999/xlink" x="0px" y="0px"
	 viewBox="0 0 49.27 45.51" style="enable-background:new 0 0 49.27 45.51;" xml:space="preserve">
<style type="text/css">
	.st0{fill:#29ABE2;}
	.st1{fill:#EB088C;}
	.st2{fill:#FCEE21;}
	.st3{fill:#E3212D;}
	.st4{fill:#54A54F;}
	.st5{fill:#72343C;}
	.st6{fill:none;stroke:#FCEE21;stroke-miterlimit:10;}
	.st7{fill:none;stroke:#EB088C;stroke-miterlimit:10;}
	.st8{fill:none;stroke:#29ABE2;stroke-miterlimit:10;}
	.st9{fill:none;stroke:#000000;stroke-width:0.25;stroke-miterlimit:10;}
	.st10{fill:none;stroke:#FFFFFF;stroke-width:0.25;stroke-miterlimit:10;}
	.st11{fill:#FFFFFF;}
	.st12{fill:url(#SVGID_1_);}
	.st13{fill:url(#SVGID_00000155107910769470369590000000263642664085795737_);}
	.st14{fill:url(#SVGID_00000044879950347791882420000015174306444446316418_);}
	.st15{fill:url(#SVGID_00000111885438877123111330000003159003648970997682_);}
	.st16{fill:url(#SVGID_00000128486839265752125670000014134206562463706276_);}
	.st17{fill:url(#SVGID_00000075130096867582885520000011118049858579659416_);}
	.st18{fill:url(#SVGID_00000064330969456092157430000011173993611609679765_);}
	.st19{fill:url(#SVGID_00000141421886017302986420000007750964017465503409_);}
	.st20{fill:url(#SVGID_00000026882029530621587260000013259388691865668758_);}
	.st21{fill:url(#SVGID_00000109027698070401739330000012688235136602458269_);}
	.st22{fill:url(#SVGID_00000043443766084970745480000006615990752422591931_);}
	.st23{fill:url(#SVGID_00000069379876523030552590000006315093526125716136_);}
	.st24{fill:url(#SVGID_00000178164683768259070440000009372194810112153016_);}
	.st25{fill:url(#SVGID_00000049941478829291196510000007492728374784299930_);}
	.st26{fill:url(#SVGID_00000047022962036630383220000007978232155465717417_);}
	.st27{fill:url(#SVGID_00000078754283580402175330000010026311875261926828_);}
	.st28{fill:url(#SVGID_00000127006972332322669850000001980573383949382323_);}
	.st29{fill:url(#SVGID_00000063608763971034669580000016745088980188668584_);}
	.st30{fill:url(#SVGID_00000023265101629229140160000017472055811814975404_);}
	.st31{fill:url(#SVGID_00000123424418424109652190000012157400888249652099_);}
	.st32{fill:url(#SVGID_00000047774929032365144530000017802929337275595161_);}
	.st33{fill:url(#SVGID_00000170969915964017974270000014644401433152977285_);}
	.st34{fill:url(#SVGID_00000172413356591950741920000003955572038480187040_);}
	.st35{fill:url(#SVGID_00000167377277230089145540000009476855311762729151_);}
	.st36{fill:url(#SVGID_00000072988645845891572790000000605995577729726370_);}
	.st37{fill:url(#SVGID_00000088114378008010591250000016424361959692742054_);}
	.st38{fill:url(#SVGID_00000146486262598649009310000018287043828435381933_);}
	.st39{fill:url(#SVGID_00000156584647848707060200000003078530402103662775_);}
	.st40{fill:url(#SVGID_00000098180784457839785490000007400395136047825283_);}
	.st41{fill:url(#SVGID_00000151542931725247814030000004959925526249132691_);}
	.st42{fill:url(#SVGID_00000062169313503284506180000015767078661454233733_);}
	.st43{fill:url(#SVGID_00000175285074174536448460000002395720560862637247_);}
	.st44{fill:url(#SVGID_00000103972911797306328990000007707352590929548981_);}
	.st45{fill:url(#SVGID_00000176033563373400042460000006387447653964766908_);}
	.st46{fill:url(#SVGID_00000091697403172455936550000001232689498982243232_);}
	.st47{fill:url(#SVGID_00000056412726164914423300000017939589147203182524_);}
</style>
<linearGradient id="SVGID_1_" gradientUnits="userSpaceOnUse" x1="1.5421" y1="44.2157" x2="44.0045" y2="1.7533">
	<stop  offset="0" style="stop-color:#EB088C"/>
	<stop  offset="0.3732" style="stop-color:#EB118B"/>
	<stop  offset="0.5077" style="stop-color:#EB248B"/>
	<stop  offset="0.6035" style="stop-color:#EC398B"/>
	<stop  offset="0.6811" style="stop-color:#EC4E8B"/>
	<stop  offset="0.7475" style="stop-color:#ED648A"/>
	<stop  offset="0.8063" style="stop-color:#EE7A87"/>
	<stop  offset="0.8595" style="stop-color:#F09180"/>
	<stop  offset="0.9084" style="stop-color:#F2AB75"/>
	<stop  offset="0.9539" style="stop-color:#F6C85F"/>
	<stop  offset="0.9942" style="stop-color:#FBE72F"/>
	<stop  offset="1" style="stop-color:#FCEE21"/>
</linearGradient>
<path class="st12" d="M49.09,38.07c-0.13-0.15-0.32-0.23-0.52-0.23h-5.9V0.71c0-0.39-0.32-0.7-0.7-0.7H0.71
	c-0.39,0-0.7,0.32-0.7,0.7v39.07v0.02c0,0,0,0,0,0C0,40.42,0.05,42.62,1.33,44c0.92,0.99,2.25,1.49,3.95,1.5
	c0.02,0,0.03,0.01,0.05,0.01h38.01c0.02,0,0.03-0.01,0.04-0.01c4.83-0.03,5.72-5.29,5.88-6.9C49.29,38.41,49.22,38.21,49.09,38.07z
	 M0.78,40.5c-0.03-0.32-0.03-0.57-0.03-0.7c0-0.07,0-0.11,0-0.11c0-0.01,0-0.02,0-0.03L0.71,0.76l41.21-0.05v37.13h-30.7
	c-0.36,0-0.67,0.28-0.7,0.64c-0.03,0.31-0.09,0.78-0.2,1.31c-0.05,0.23-0.11,0.47-0.18,0.71c-0.54,1.92-1.82,4.25-4.8,4.25
	c-1.51,0-2.67-0.42-3.45-1.26C1.09,42.64,0.85,41.34,0.78,40.5z M43.37,44.76c-0.01,0-0.01,0-0.01,0H43.3l-2.99,0L8.07,44.76
	c1.47-0.9,2.37-2.51,2.82-4.26c0.06-0.24,0.11-0.47,0.16-0.71c0.07-0.4,0.13-0.8,0.16-1.2l30.7-0.05l0.75,0l5.85-0.01
	C48.38,39.99,47.59,44.74,43.37,44.76z"/>
</svg>
