<?xml version="1.0" encoding="utf-8"?>
<!-- Generator: Adobe Illustrator 25.4.1, SVG Export Plug-In . SVG Version: 6.00 Build 0)  -->
<svg version="1.1" id="Layer_1" xmlns="http://www.w3.org/2000/svg" xmlns:xlink="http://www.w3.org/1999/xlink" x="0px" y="0px"
	 viewBox="0 0 45.5 45.5" style="enable-background:new 0 0 45.5 45.5;" xml:space="preserve">
<g>
	<path d="M41.7,42.1H3.8c-0.2,0-0.4-0.2-0.4-0.4V3.8c0-0.2,0.2-0.4,0.4-0.4h37.9c0.2,0,0.4,0.2,0.4,0.4v37.9
		C42.1,41.9,41.9,42.1,41.7,42.1z M4.2,41.3h37.2V4.2H4.2V41.3z"/>
	<path d="M44.4,44.8H1.1c-0.2,0-0.4-0.2-0.4-0.4V1.1c0-0.2,0.2-0.4,0.4-0.4h43.3c0.2,0,0.4,0.2,0.4,0.4v43.3
		C44.8,44.6,44.6,44.8,44.4,44.8z M1.5,44H44V1.5H1.5V44z"/>
	<path d="M31.1,31.5H14.4c-0.2,0-0.4-0.2-0.4-0.4V14.4c0-0.2,0.2-0.4,0.4-0.4h16.7c0.2,0,0.4,0.2,0.4,0.4v16.7
		C31.5,31.3,31.3,31.5,31.1,31.5z M14.8,30.7h15.9V14.8H14.8V30.7z"/>
</g>
</svg>
