<?xml version="1.0" encoding="utf-8"?>
<!-- Generator: Adobe Illustrator 25.4.1, SVG Export Plug-In . SVG Version: 6.00 Build 0)  -->
<svg version="1.1" id="Layer_1" xmlns="http://www.w3.org/2000/svg" xmlns:xlink="http://www.w3.org/1999/xlink" x="0px" y="0px"
	 viewBox="0 0 45.5 45.5" style="enable-background:new 0 0 45.5 45.5;" xml:space="preserve">
<style type="text/css">
	.st0{fill:#FFFFFF;}
</style>
<path class="st0" d="M44.8,1.1c0-0.2-0.2-0.4-0.4-0.4H3.8l0,0c-0.1,0-0.2,0-0.2,0.1l0,0L0.9,3.5C0.8,3.6,0.8,3.7,0.8,3.8v40.6
	c0,0.1,0,0.1,0.1,0.2l0,0L1,44.7l0,0c0.1,0,0.1,0,0.1,0h40.6c0.1,0,0.2,0,0.3-0.1l2.7-2.7l0,0c0.1-0.1,0.1-0.2,0.1-0.2L44.8,1.1
	L44.8,1.1z M4.2,1.5H44v39.8H4.2V1.5z M1.5,4l2-2v39.5l-2,2V4z M41.5,44H2l2-2h39.5L41.5,44z"/>
</svg>
