<?xml version="1.0" encoding="utf-8"?>
<!-- Generator: Adobe Illustrator 25.4.1, SVG Export Plug-In . SVG Version: 6.00 Build 0)  -->
<svg version="1.1" id="Layer_1" xmlns="http://www.w3.org/2000/svg" xmlns:xlink="http://www.w3.org/1999/xlink" x="0px" y="0px"
	 viewBox="0 0 45.5 45.5" style="enable-background:new 0 0 45.5 45.5;" xml:space="preserve">
<style type="text/css">
	.st0{fill:#FFFFFF;}
</style>
<path class="st0" d="M44.4,3.4H42V1.1c0-0.2-0.2-0.4-0.4-0.4H1.1c-0.2,0-0.4,0.2-0.4,0.4v40.6c0,0.2,0.2,0.4,0.4,0.4h2.3v2.3
	c0,0.2,0.2,0.4,0.4,0.4h40.6c0.2,0,0.4-0.2,0.4-0.4V3.8C44.7,3.6,44.6,3.4,44.4,3.4z M1.5,41.3V1.5h39.8v2H3.8
	c-0.2,0-0.4,0.2-0.4,0.4v37.5H1.5V41.3z M41.3,4.2v37.2H4.2V4.2H41.3z M44,44H4.2v-2h37.5c0.2,0,0.4-0.2,0.4-0.4V4.2h2V44H44z"/>
</svg>
