<svg id="Layer_1" data-name="Layer 1" xmlns="http://www.w3.org/2000/svg" viewBox="0 0 242.5 159.61"><defs><style>.cls-1,.cls-2{fill:none;stroke:#231f20;stroke-linejoin:round;}.cls-2{stroke-width:3px;}.cls-3{fill:#231f20;}</style></defs><line class="cls-1" x1="48.45" y1="51.08" x2="48.45" y2="8.08"/><line class="cls-1" x1="188.04" y1="51.08" x2="188.04" y2="8.08"/><line class="cls-1" x1="37.03" y1="20.55" x2="199.47" y2="20.55"/><line class="cls-1" x1="8.17" y1="51.08" x2="48.45" y2="51.08"/><line class="cls-1" x1="8.17" y1="115.19" x2="48.45" y2="115.19"/><line class="cls-1" x1="188.04" y1="68.38" x2="228.33" y2="68.38"/><line class="cls-1" x1="162.6" y1="115.19" x2="228.33" y2="115.19"/><line class="cls-1" x1="20.04" y1="40.9" x2="20.04" y2="125.37"/><line class="cls-1" x1="220.14" y1="57.1" x2="220.14" y2="126.47"/><line class="cls-1" x1="153.17" y1="138.08" x2="197.48" y2="138.08"/><line class="cls-1" x1="162.6" y1="115.19" x2="162.6" y2="147.75"/><line class="cls-1" x1="188.04" y1="68.38" x2="188.04" y2="147.75"/><polygon class="cls-2" points="162.6 51.08 154.63 51.08 48.45 51.08 48.45 115.19 162.6 115.19 162.6 68.38 188.04 68.38 188.04 51.08 162.6 51.08"/><path class="cls-3" d="M98.67,8.17V1.47a.78.78,0,0,1-.22.06l-.49.1-.48.09-.22,0V1l.4-.11c.15,0,.3-.1.46-.17a2.46,2.46,0,0,0,.45-.25,1.71,1.71,0,0,0,.36-.35h.81v8.1Z"/><path class="cls-3" d="M105.64,8.25A2.1,2.1,0,0,1,104.48,8a1.57,1.57,0,0,1-.61-.81,3.89,3.89,0,0,1-.19-1.26h1.07a4,4,0,0,0,.06.7,1.16,1.16,0,0,0,.26.57.9.9,0,0,0,1.22,0,1.35,1.35,0,0,0,.24-.69,7.43,7.43,0,0,0,0-1,6,6,0,0,0-.06-.93,1.11,1.11,0,0,0-.25-.6.79.79,0,0,0-.6-.2.85.85,0,0,0-.56.2,1.52,1.52,0,0,0-.34.47h-.91V.07h3.49V1.14h-2.52l-.07,2.24a1.45,1.45,0,0,1,.5-.33,1.78,1.78,0,0,1,.67-.12,1.57,1.57,0,0,1,1,.31,1.66,1.66,0,0,1,.53.85,4.63,4.63,0,0,1,.15,1.24,6.88,6.88,0,0,1-.09,1.15,2.89,2.89,0,0,1-.31.94,1.65,1.65,0,0,1-.62.61A2,2,0,0,1,105.64,8.25Z"/><path class="cls-3" d="M108.26,8.17l2.18-8.1h.93l-2.19,8.1Z"/><path class="cls-3" d="M113.37,8.17V1.47a.78.78,0,0,1-.22.06l-.49.1-.48.09-.22,0V1l.4-.11c.15,0,.3-.1.46-.17a2.46,2.46,0,0,0,.45-.25,1.71,1.71,0,0,0,.36-.35h.81v8.1Z"/><path class="cls-3" d="M118.19,8.26a1.77,1.77,0,0,1-1.14-.36,2,2,0,0,1-.64-1,4.05,4.05,0,0,1-.21-1.34V2.87a5.35,5.35,0,0,1,.18-1.44,2.14,2.14,0,0,1,.62-1A1.72,1.72,0,0,1,118.19,0a2.32,2.32,0,0,1,1.07.23,1.6,1.6,0,0,1,.67.67A2.2,2.2,0,0,1,120.17,2a.43.43,0,0,1,0,.05v.07H119.1a1.72,1.72,0,0,0-.19-.9.9.9,0,0,0-1.22-.13,1.2,1.2,0,0,0-.31.57,3.73,3.73,0,0,0-.11,1V3.84a1.13,1.13,0,0,1,.46-.4,1.47,1.47,0,0,1,.72-.16,1.7,1.7,0,0,1,1,.29,1.5,1.5,0,0,1,.54.81,4.19,4.19,0,0,1,.16,1.24A4,4,0,0,1,120,7a1.9,1.9,0,0,1-.64,1A1.78,1.78,0,0,1,118.19,8.26Zm0-.89a.77.77,0,0,0,.56-.2,1.16,1.16,0,0,0,.29-.55,2.9,2.9,0,0,0,.08-.74,8.2,8.2,0,0,0,0-.89,1.3,1.3,0,0,0-.24-.66.77.77,0,0,0-.65-.24,1.06,1.06,0,0,0-.4.08,1,1,0,0,0-.31.21,1.71,1.71,0,0,0-.21.26V5.85a3,3,0,0,0,.09.76,1.29,1.29,0,0,0,.28.56A.77.77,0,0,0,118.19,7.37Z"/><path class="cls-3" d="M121.43,2.72l-.19-.4a.46.46,0,0,0,.43-.29,2.2,2.2,0,0,0,.11-.83h-.53V.07h1.17V1a2.67,2.67,0,0,1-.22,1.21A.84.84,0,0,1,121.43,2.72Zm1.76,0-.19-.4a.46.46,0,0,0,.43-.29,2.2,2.2,0,0,0,.11-.83H123V.07h1.17V1A2.67,2.67,0,0,1,124,2.25.84.84,0,0,1,123.19,2.72Z"/><path class="cls-3" d="M8.26,91.69A2.2,2.2,0,0,1,8,92.76a1.54,1.54,0,0,1-.68.68,2.54,2.54,0,0,1-1.09.24H6.16V92.61a1.78,1.78,0,0,0,.89-.19.79.79,0,0,0,.32-.74.71.71,0,0,0-.18-.5,1.1,1.1,0,0,0-.58-.3,3.75,3.75,0,0,0-1-.1H4.41a1.07,1.07,0,0,1,.4.44A1.53,1.53,0,0,1,5,92,1.68,1.68,0,0,1,4.67,93a1.49,1.49,0,0,1-.82.53,4.06,4.06,0,0,1-1.22.16,4.33,4.33,0,0,1-1.34-.2,2,2,0,0,1-.94-.65A1.82,1.82,0,0,1,0,91.69a1.78,1.78,0,0,1,.35-1.14,2.06,2.06,0,0,1,1-.65,4.33,4.33,0,0,1,1.34-.2H5.37a5.46,5.46,0,0,1,1.44.18,2.11,2.11,0,0,1,1.05.61A1.66,1.66,0,0,1,8.26,91.69Zm-4.1,0A.88.88,0,0,0,4,91.12a1.21,1.21,0,0,0-.38-.34H2.4a3.09,3.09,0,0,0-.77.08,1.07,1.07,0,0,0-.55.28.76.76,0,0,0-.2.55.72.72,0,0,0,.21.55,1.09,1.09,0,0,0,.54.29,2.89,2.89,0,0,0,.74.09,8.08,8.08,0,0,0,.89-.05,1.3,1.3,0,0,0,.66-.24A.77.77,0,0,0,4.16,91.69Z"/><path class="cls-3" d="M8.17,88.83.07,86.65v-.93l8.1,2.19Z"/><path class="cls-3" d="M8.17,83.72H1.47a1,1,0,0,1,.06.22c0,.15.07.31.1.49s.06.34.09.48a2.13,2.13,0,0,1,0,.22H1c0-.11-.06-.25-.11-.4s-.1-.3-.17-.46a3.37,3.37,0,0,0-.25-.45,1.71,1.71,0,0,0-.35-.36v-.81h8.1Z"/><path class="cls-3" d="M8.26,78.9A1.75,1.75,0,0,1,7.9,80a2,2,0,0,1-1,.64,4.05,4.05,0,0,1-1.34.21H2.87a5.35,5.35,0,0,1-1.44-.18,2.14,2.14,0,0,1-1-.62A1.72,1.72,0,0,1,0,78.9a2.32,2.32,0,0,1,.23-1.07,1.6,1.6,0,0,1,.67-.67A2.32,2.32,0,0,1,2,76.92h.12V78a1.72,1.72,0,0,0-.9.19.77.77,0,0,0-.31.72.75.75,0,0,0,.18.5,1.2,1.2,0,0,0,.57.31,3.73,3.73,0,0,0,1,.11H3.84a1.13,1.13,0,0,1-.4-.46,1.45,1.45,0,0,1-.16-.72,1.7,1.7,0,0,1,.29-1,1.5,1.5,0,0,1,.81-.54,4.19,4.19,0,0,1,1.24-.16,4.27,4.27,0,0,1,1.33.2,2,2,0,0,1,1,.64A1.78,1.78,0,0,1,8.26,78.9Zm-.89,0a.77.77,0,0,0-.2-.56,1.26,1.26,0,0,0-.55-.29A3.43,3.43,0,0,0,5.88,78,8.2,8.2,0,0,0,5,78a1.3,1.3,0,0,0-.66.24.78.78,0,0,0-.24.65,1.06,1.06,0,0,0,.08.4,1,1,0,0,0,.21.31,1.26,1.26,0,0,0,.26.21H5.85a3,3,0,0,0,.76-.09,1.19,1.19,0,0,0,.56-.28A.77.77,0,0,0,7.37,78.9Z"/><path class="cls-3" d="M2.72,73.9l-.4.19A.46.46,0,0,0,2,73.66a2.43,2.43,0,0,0-.83-.11v.53H.07V72.91H1a2.67,2.67,0,0,1,1.21.22A.85.85,0,0,1,2.72,73.9Zm0,1.76-.4.19A.46.46,0,0,0,2,75.42a2.43,2.43,0,0,0-.83-.11v.53H.07V74.67H1a2.67,2.67,0,0,1,1.21.22A.85.85,0,0,1,2.72,75.66Z"/><path class="cls-3" d="M242.41,100.89l-7.26-1.46v2.17h-.84V98.36h.52l7.58,1.5Z"/><path class="cls-3" d="M242.41,97.67l-8.1-2.18v-.93l8.1,2.19Z"/><path class="cls-3" d="M242.41,92.56h-6.7s0,.09.06.23.06.3.1.48.06.34.09.48,0,.22,0,.23h-.81c0-.12-.07-.25-.11-.4s-.11-.3-.17-.46a2.46,2.46,0,0,0-.25-.45,1.76,1.76,0,0,0-.35-.37v-.8h8.1Z"/><path class="cls-3" d="M242.5,87.75a1.72,1.72,0,0,1-.36,1.13,2,2,0,0,1-1,.65,4.05,4.05,0,0,1-1.34.2h-2.73a5.8,5.8,0,0,1-1.44-.17,2.09,2.09,0,0,1-1-.62,1.72,1.72,0,0,1-.39-1.19,2.17,2.17,0,0,1,.23-1.07,1.55,1.55,0,0,1,.67-.67,2.2,2.2,0,0,1,1.07-.24h.12v1.08a1.77,1.77,0,0,0-.9.19.78.78,0,0,0-.31.73.77.77,0,0,0,.18.5,1.23,1.23,0,0,0,.57.31,3.73,3.73,0,0,0,1,.11h1.23a1.23,1.23,0,0,1-.41-.46,1.61,1.61,0,0,1-.15-.73,1.63,1.63,0,0,1,.29-1,1.46,1.46,0,0,1,.81-.54,4.13,4.13,0,0,1,1.24-.17,4,4,0,0,1,1.33.21,2,2,0,0,1,.95.63A1.83,1.83,0,0,1,242.5,87.75Zm-.89,0a.72.72,0,0,0-.21-.56,1.13,1.13,0,0,0-.54-.29,2.94,2.94,0,0,0-.74-.09,8.08,8.08,0,0,0-.89,0,1.36,1.36,0,0,0-.66.23.81.81,0,0,0-.24.66.92.92,0,0,0,.08.4,1.1,1.1,0,0,0,.2.31,1.78,1.78,0,0,0,.27.21h1.21a3.1,3.1,0,0,0,.76-.09,1.12,1.12,0,0,0,.55-.29A.7.7,0,0,0,241.61,87.75Z"/><path class="cls-3" d="M237,82.75l-.4.19a.47.47,0,0,0-.29-.43,2.2,2.2,0,0,0-.83-.11v.53h-1.13V81.76h1a2.67,2.67,0,0,1,1.21.22A.84.84,0,0,1,237,82.75Zm0,1.76-.4.19a.47.47,0,0,0-.29-.43,2.2,2.2,0,0,0-.83-.11v.53h-1.13V83.52h1a2.67,2.67,0,0,1,1.21.22A.84.84,0,0,1,237,84.51Z"/><path class="cls-3" d="M169.15,159.61v-6.7l-.23.06-.48.1-.49.09-.22,0v-.81l.4-.11c.15-.05.3-.1.46-.17a2.46,2.46,0,0,0,.45-.25,1.5,1.5,0,0,0,.36-.35h.81v8.1Z"/><path class="cls-3" d="M171.69,159.61l2.17-8.1h.93l-2.19,8.1Z"/><path class="cls-3" d="M177.83,159.61v-2.17h-2.35v-1.12l2.11-4.81h1.26v5h.92v.95h-.92v2.17Zm-1.31-3.12h1.31v-3.68Z"/><path class="cls-3" d="M180.69,154.16l-.19-.4a.46.46,0,0,0,.43-.29,2.2,2.2,0,0,0,.11-.83h-.53v-1.13h1.17v1a2.67,2.67,0,0,1-.22,1.21A.84.84,0,0,1,180.69,154.16Zm1.76,0-.19-.4a.46.46,0,0,0,.43-.29,2.2,2.2,0,0,0,.11-.83h-.53v-1.13h1.17v1a2.67,2.67,0,0,1-.22,1.21A.84.84,0,0,1,182.45,154.16Z"/></svg>