<svg id="Layer_1" data-name="Layer 1" xmlns="http://www.w3.org/2000/svg" viewBox="0 0 228.88 209.22"><defs><style>.cls-1{fill:#fff;}.cls-2,.cls-3{fill:none;stroke:#231f20;stroke-linejoin:round;}.cls-2{stroke-width:3px;}.cls-4{fill:#231f20;}</style></defs><polygon id="bgcolor" class="cls-1" points="177.73 51.08 152.89 51.08 141.3 51.08 52.21 51.08 52.21 164.8 152.89 164.8 152.89 71.17 177.73 71.17 177.73 51.08"/><polygon class="cls-2" points="177.73 51.08 152.89 51.08 141.3 51.08 52.21 51.08 52.21 164.8 152.89 164.8 152.89 71.17 177.73 71.17 177.73 51.08"/><line class="cls-3" x1="41.2" y1="20.55" x2="188.74" y2="20.55"/><line class="cls-3" x1="141.21" y1="187.7" x2="189.64" y2="187.7"/><line class="cls-3" x1="52.21" y1="51.08" x2="52.21" y2="8.08"/><line class="cls-3" x1="177.73" y1="51.08" x2="177.73" y2="8.08"/><line class="cls-3" x1="153.12" y1="164.71" x2="221.77" y2="164.71"/><line class="cls-3" x1="177.73" y1="71.07" x2="221.77" y2="71.07"/><line class="cls-3" x1="8.17" y1="51.08" x2="52.21" y2="51.08"/><line class="cls-3" x1="8.17" y1="164.8" x2="52.21" y2="164.8"/><line class="cls-3" x1="177.73" y1="71.16" x2="177.73" y2="197.37"/><line class="cls-3" x1="153.12" y1="164.8" x2="153.12" y2="197.37"/><line class="cls-3" x1="19.39" y1="40.45" x2="19.39" y2="175.42"/><line class="cls-3" x1="208.65" y1="60.26" x2="208.65" y2="175.51"/><path class="cls-4" d="M8.17,121.69H1.47a1.16,1.16,0,0,1,.06.23c0,.14.07.3.1.48s.06.34.09.48,0,.22,0,.22H1c0-.11-.06-.24-.11-.39s-.1-.3-.17-.46a2.46,2.46,0,0,0-.25-.45,1.76,1.76,0,0,0-.35-.37v-.81h8.1Z"/><path class="cls-4" d="M8.26,112.48a2.16,2.16,0,0,1-.25,1.1,1.54,1.54,0,0,1-.72.66,2.53,2.53,0,0,1-1.11.22H5.91V113.4h.18a2.57,2.57,0,0,0,.65-.08.89.89,0,0,0,.46-.27,1,1,0,0,0,0-1.16,1,1,0,0,0-.53-.27,4.52,4.52,0,0,0-.78-.07,2,2,0,0,0-1,.24,1,1,0,0,0-.44.82.19.19,0,0,0,0,.08v.07H3.31v-.14a1.09,1.09,0,0,0-.3-.82,1.44,1.44,0,0,0-.93-.25,1.82,1.82,0,0,0-.88.19.76.76,0,0,0-.33.73.73.73,0,0,0,.36.73,2.3,2.3,0,0,0,.94.2h.17v1.06H2.07A2.53,2.53,0,0,1,1,114.24a1.51,1.51,0,0,1-.71-.66,2.59,2.59,0,0,1,0-2.22A1.62,1.62,0,0,1,1,110.7a2.73,2.73,0,0,1,1.12-.22,2,2,0,0,1,1.17.32,1.6,1.6,0,0,1,.6.84,1.38,1.38,0,0,1,.38-.62,1.93,1.93,0,0,1,.69-.4,3,3,0,0,1,1-.14,3.6,3.6,0,0,1,1.25.2,1.69,1.69,0,0,1,.83.64A2,2,0,0,1,8.26,112.48Z"/><path class="cls-4" d="M8.17,109.8l-8.1-2.18v-.93l8.1,2.19Z"/><path class="cls-4" d="M8.17,104.69H1.47a1.16,1.16,0,0,1,.06.23c0,.14.07.3.1.48s.06.34.09.48,0,.22,0,.22H1c0-.11-.06-.24-.11-.39s-.1-.3-.17-.46a2.46,2.46,0,0,0-.25-.45,1.76,1.76,0,0,0-.35-.37v-.81h8.1Z"/><path class="cls-4" d="M8.26,99.88A1.72,1.72,0,0,1,7.9,101a2,2,0,0,1-1,.65,4.05,4.05,0,0,1-1.34.2H2.87a5.8,5.8,0,0,1-1.44-.17,2.22,2.22,0,0,1-1-.62A1.72,1.72,0,0,1,0,99.88a2.29,2.29,0,0,1,.23-1.07,1.6,1.6,0,0,1,.67-.67A2.2,2.2,0,0,1,2,97.9h.12V99a1.83,1.83,0,0,0-.9.19.78.78,0,0,0-.31.73.77.77,0,0,0,.18.5,1.29,1.29,0,0,0,.57.31,3.78,3.78,0,0,0,1,.1H3.84a1,1,0,0,1-.4-.45,1.49,1.49,0,0,1-.16-.73,1.74,1.74,0,0,1,.29-1A1.62,1.62,0,0,1,4.38,98a4.55,4.55,0,0,1,1.24-.16,4.27,4.27,0,0,1,1.33.2,2,2,0,0,1,1,.64A1.83,1.83,0,0,1,8.26,99.88Zm-.89,0a.79.79,0,0,0-.2-.57A1.25,1.25,0,0,0,6.62,99a2.89,2.89,0,0,0-.74-.09A8.08,8.08,0,0,0,5,99a1.4,1.4,0,0,0-.66.23.81.81,0,0,0-.24.66,1,1,0,0,0,.08.39.77.77,0,0,0,.21.31,1,1,0,0,0,.26.21H5.85a3.06,3.06,0,0,0,.76-.08,1.2,1.2,0,0,0,.56-.29A.73.73,0,0,0,7.37,99.88Z"/><path class="cls-4" d="M2.72,94.88l-.4.18A.46.46,0,0,0,2,94.64a2.17,2.17,0,0,0-.83-.12v.54H.07V93.89H1a2.83,2.83,0,0,1,1.21.21A.87.87,0,0,1,2.72,94.88Zm0,1.76-.4.19A.46.46,0,0,0,2,96.4a2.2,2.2,0,0,0-.83-.11v.52H.07V95.65H1a2.67,2.67,0,0,1,1.21.22A.84.84,0,0,1,2.72,96.64Z"/><path class="cls-4" d="M228.88,121.39h-6.7s0,.09.06.23.06.3.1.48.06.34.09.48,0,.22,0,.22h-.81l-.11-.39c-.05-.15-.11-.3-.17-.46a2.46,2.46,0,0,0-.25-.45,1.76,1.76,0,0,0-.35-.37v-.81h8.1Z"/><path class="cls-4" d="M223.43,116.6l-.4.19a.47.47,0,0,0-.29-.42,2.17,2.17,0,0,0-.83-.12v.53h-1.13v-1.17h1a2.81,2.81,0,0,1,1.21.22A.86.86,0,0,1,223.43,116.6Zm0,1.76-.4.19a.47.47,0,0,0-.29-.42,2.17,2.17,0,0,0-.83-.12v.53h-1.13v-1.17h1a2.81,2.81,0,0,1,1.21.22A.86.86,0,0,1,223.43,118.36Z"/><path class="cls-4" d="M96.21,8.17V1.47a.78.78,0,0,1-.22.06l-.49.1L95,1.72l-.22,0V1l.4-.11c.15,0,.3-.1.46-.17a3.37,3.37,0,0,0,.45-.25,1.71,1.71,0,0,0,.36-.35h.81v8.1Z"/><path class="cls-4" d="M103.13,8.26A2.18,2.18,0,0,1,102,8a1.64,1.64,0,0,1-.66-.72,2.68,2.68,0,0,1-.22-1.11V5.91h1.06v.18a3.09,3.09,0,0,0,.09.65.89.89,0,0,0,.27.46,1,1,0,0,0,1.15,0,.9.9,0,0,0,.27-.53,3.71,3.71,0,0,0,.07-.78,2.15,2.15,0,0,0-.23-1,1,1,0,0,0-.83-.44h-.15V3.31H103a1.07,1.07,0,0,0,.82-.3,1.38,1.38,0,0,0,.25-.93,1.83,1.83,0,0,0-.18-.88.78.78,0,0,0-.74-.33.74.74,0,0,0-.73.36,2.47,2.47,0,0,0-.2.94v.17h-1.06V2.07A2.68,2.68,0,0,1,101.37,1,1.59,1.59,0,0,1,102,.25a2.57,2.57,0,0,1,2.21,0,1.51,1.51,0,0,1,.66.71,2.57,2.57,0,0,1,.22,1.12,2,2,0,0,1-.31,1.17,1.59,1.59,0,0,1-.85.6,1.36,1.36,0,0,1,.63.38,1.78,1.78,0,0,1,.39.69,2.78,2.78,0,0,1,.14,1,3.38,3.38,0,0,1-.2,1.25,1.58,1.58,0,0,1-.64.83A2,2,0,0,1,103.13,8.26Z"/><path class="cls-4" d="M105.81,8.17,108,.07h.93l-2.19,8.1Z"/><path class="cls-4" d="M110.92,8.17V1.47a.78.78,0,0,1-.22.06l-.49.1-.48.09-.22,0V1l.4-.11c.15,0,.3-.1.46-.17a3.37,3.37,0,0,0,.45-.25,1.71,1.71,0,0,0,.36-.35H112v8.1Z"/><path class="cls-4" d="M115.74,8.26a1.77,1.77,0,0,1-1.14-.36,2,2,0,0,1-.64-1,4.05,4.05,0,0,1-.21-1.34V2.87a5.35,5.35,0,0,1,.18-1.44,2.14,2.14,0,0,1,.62-1A1.72,1.72,0,0,1,115.74,0a2.32,2.32,0,0,1,1.07.23,1.6,1.6,0,0,1,.67.67A2.32,2.32,0,0,1,117.72,2a.11.11,0,0,0,0,.05v.07h-1.08a1.72,1.72,0,0,0-.19-.9.9.9,0,0,0-1.22-.13,1.2,1.2,0,0,0-.31.57,3.73,3.73,0,0,0-.11,1V3.84a1.13,1.13,0,0,1,.46-.4,1.45,1.45,0,0,1,.72-.16,1.7,1.7,0,0,1,1,.29,1.5,1.5,0,0,1,.54.81,4.19,4.19,0,0,1,.16,1.24,4,4,0,0,1-.2,1.33,1.9,1.9,0,0,1-.64,1A1.78,1.78,0,0,1,115.74,8.26Zm0-.89a.77.77,0,0,0,.56-.2,1.16,1.16,0,0,0,.29-.55,3.43,3.43,0,0,0,.08-.74,8.2,8.2,0,0,0,0-.89,1.3,1.3,0,0,0-.24-.66.77.77,0,0,0-.65-.24,1.06,1.06,0,0,0-.4.08,1,1,0,0,0-.31.21,1.71,1.71,0,0,0-.21.26V5.85a3,3,0,0,0,.09.76,1.19,1.19,0,0,0,.28.56A.77.77,0,0,0,115.74,7.37Z"/><path class="cls-4" d="M119,2.72l-.19-.4a.46.46,0,0,0,.43-.29,2.43,2.43,0,0,0,.11-.83h-.53V.07H120V1a2.67,2.67,0,0,1-.22,1.21A.84.84,0,0,1,119,2.72Zm1.76,0-.19-.4A.46.46,0,0,0,121,2a2.43,2.43,0,0,0,.11-.83h-.53V.07h1.17V1a2.67,2.67,0,0,1-.22,1.21A.84.84,0,0,1,120.74,2.72Z"/><path class="cls-4" d="M158.67,209.22v-6.7l-.22.06-.49.1-.48.09-.22,0V202l.4-.11c.15,0,.3-.1.46-.17a3.37,3.37,0,0,0,.45-.25,1.71,1.71,0,0,0,.36-.35h.81v8.1Z"/><path class="cls-4" d="M161.21,209.22l2.18-8.1h.93l-2.19,8.1Z"/><path class="cls-4" d="M167.36,209.22v-2.17H165v-1.12l2.11-4.81h1.26v5h.91v1h-.91v2.17ZM166,206.1h1.32v-3.68Z"/><path class="cls-4" d="M170.22,203.77l-.19-.4a.46.46,0,0,0,.43-.29,2.43,2.43,0,0,0,.11-.83H170v-1.13h1.17v1a2.67,2.67,0,0,1-.22,1.21A.84.84,0,0,1,170.22,203.77Zm1.76,0-.19-.4a.46.46,0,0,0,.43-.29,2.43,2.43,0,0,0,.11-.83h-.53v-1.13H173v1a2.67,2.67,0,0,1-.22,1.21A.84.84,0,0,1,172,203.77Z"/></svg>