<?xml version="1.0" encoding="utf-8"?>
<!-- Generator: Adobe Illustrator 25.4.1, SVG Export Plug-In . SVG Version: 6.00 Build 0)  -->
<svg version="1.1" id="Layer_1" xmlns="http://www.w3.org/2000/svg" xmlns:xlink="http://www.w3.org/1999/xlink" x="0px" y="0px"
	 viewBox="0 0 25.19 38.11" enable-background="new 0 0 25.19 38.11" xml:space="preserve">
<g>
	<g>
		<path fill="none" stroke="#000000" stroke-width="1.5" stroke-miterlimit="10" d="M2.63,1.5v5.71c0,2.3,0.9,4.51,2.51,6.18
			l3.72,3.86c1.01,1.05,1,2.7-0.03,3.74l-3.58,3.6c-1.67,1.68-2.61,3.94-2.61,6.29v5.73"/>
		<path fill="none" stroke="#000000" stroke-width="1.5" stroke-miterlimit="10" d="M22.56,1.5v5.71c0,2.3-0.9,4.51-2.51,6.18
			l-3.72,3.86c-1.01,1.05-1,2.7,0.03,3.74l3.58,3.6c1.67,1.68,2.61,3.94,2.61,6.29v5.73"/>
	</g>
	<line fill="none" stroke="#000000" stroke-width="1.5" stroke-miterlimit="10" x1="0.52" y1="1.5" x2="24.68" y2="1.5"/>
	<line fill="none" stroke="#000000" stroke-width="1.5" stroke-miterlimit="10" x1="0.52" y1="36.61" x2="24.68" y2="36.61"/>
	<path fill="none" stroke="#000000" stroke-width="1.5" stroke-miterlimit="10" d="M14.03,14.81L14.03,14.81
		c1.18-1.25,0.29-3.31-1.43-3.31h0c-1.72,0-2.61,2.06-1.43,3.31l0,0C11.94,15.64,13.25,15.64,14.03,14.81z"/>
	<path fill="none" stroke="#000000" stroke-width="1.5" stroke-miterlimit="10" d="M9.56,27.64L9.56,27.64
		c-1.38,2.35,0.31,5.31,3.03,5.31h0c2.73,0,4.42-2.96,3.03-5.31l0,0C14.27,25.33,10.93,25.33,9.56,27.64z"/>
</g>
</svg>
