<?xml version="1.0" encoding="utf-8"?>
<!-- Generator: Adobe Illustrator 25.4.1, SVG Export Plug-In . SVG Version: 6.00 Build 0)  -->
<svg version="1.1" xmlns="http://www.w3.org/2000/svg" xmlns:xlink="http://www.w3.org/1999/xlink" x="0px" y="0px"
	 viewBox="0 0 38.29 38.12" enable-background="new 0 0 38.29 38.12" xml:space="preserve">
<g id="Layer_1">
	<g>
		<g>
			<path fill="none" stroke="#000000" stroke-width="1.5" stroke-miterlimit="10" d="M30.84,16.16H7.45c-2,0-3.63-1.62-3.63-3.63
				v-0.35c0-2,1.62-3.63,3.63-3.63h23.39c2,0,3.63,1.62,3.63,3.63v0.35C34.47,14.54,32.84,16.16,30.84,16.16z"/>
			
				<line fill="none" stroke="#000000" stroke-width="1.5" stroke-linecap="round" stroke-miterlimit="10" x1="3.83" y1="12.36" x2="1.28" y2="12.36"/>
			<path fill="none" stroke="#000000" stroke-width="1.5" stroke-miterlimit="10" d="M7.69,23.76H7.63c-2.1,0-3.8-1.7-3.8-3.8v0
				c0-2.1,1.7-3.8,3.8-3.8h23.03c2.1,0,3.8,1.7,3.8,3.8v0c0,2.1-1.7,3.8-3.8,3.8h-0.06"/>
			
				<line fill="none" stroke="#000000" stroke-width="1.5" stroke-linecap="round" stroke-miterlimit="10" x1="3.83" y1="19.96" x2="1.28" y2="19.96"/>
			
				<line fill="none" stroke="#000000" stroke-width="1.5" stroke-linecap="round" stroke-miterlimit="10" x1="37.01" y1="12.36" x2="34.47" y2="12.36"/>
			
				<line fill="none" stroke="#000000" stroke-width="1.5" stroke-linecap="round" stroke-miterlimit="10" x1="37.01" y1="19.96" x2="34.47" y2="19.96"/>
		</g>
		
			<rect x="7.69" y="16.16" fill="#FFFFFF" stroke="#000000" stroke-width="1.5" stroke-miterlimit="10" width="22.92" height="19.74"/>
		<rect x="7.69" y="2.22" fill="none" stroke="#000000" stroke-width="1.5" stroke-miterlimit="10" width="22.92" height="6.33"/>
		<path fill="none" stroke="#000000" stroke-width="1.5" stroke-miterlimit="10" d="M30.61,23.76H19.05c0,0,2.78,12.13-11.36,12.13"
			/>
	</g>
</g>
<g id="Layer_2">
</g>
</svg>
