<?xml version="1.0" encoding="utf-8"?>
<!-- Generator: Adobe Illustrator 25.4.1, SVG Export Plug-In . SVG Version: 6.00 Build 0)  -->
<svg version="1.1" id="Layer_1" xmlns="http://www.w3.org/2000/svg" xmlns:xlink="http://www.w3.org/1999/xlink" x="0px" y="0px"
	 viewBox="0 0 26.98 38.12" enable-background="new 0 0 26.98 38.12" xml:space="preserve">
<path fill="none" stroke="#000000" stroke-width="1.5" stroke-linejoin="round" stroke-miterlimit="10" d="M3.1,28.96
	c3.1-2.56,5.54-4.67,7.33-6.31c1.79-1.64,3.3-3.37,4.53-5.17s1.85-3.56,1.85-5.27c0-1.3-0.3-2.31-0.9-3.04
	c-0.6-0.73-1.5-1.09-2.71-1.09s-2.14,0.45-2.82,1.35c-0.68,0.9-1.02,2.18-1.02,3.82H1.53c0.06-2.69,0.64-4.94,1.73-6.74
	c1.09-1.8,2.53-3.13,4.32-3.99c1.79-0.85,3.77-1.28,5.96-1.28c3.76,0,6.6,0.97,8.52,2.89c1.91,1.93,2.87,4.45,2.87,7.54
	c0,3.39-1.16,6.52-3.46,9.42c-2.31,2.89-5.25,5.72-8.83,8.47h12.81v6.6H1.63v-6.03C2.7,29.29,3.19,28.89,3.1,28.96z"/>
</svg>
