<?xml version="1.0" encoding="utf-8"?>
<!-- Generator: Adobe Illustrator 25.4.1, SVG Export Plug-In . SVG Version: 6.00 Build 0)  -->
<svg version="1.1" id="Layer_1" xmlns="http://www.w3.org/2000/svg" xmlns:xlink="http://www.w3.org/1999/xlink" x="0px" y="0px"
	 viewBox="0 0 38.12 38.12" enable-background="new 0 0 38.12 38.12" xml:space="preserve">
<g>
	<path fill="none" stroke="#000000" stroke-width="1.5" stroke-miterlimit="10" d="M36.62,36.62H9.08c-4.19,0-7.58-3.39-7.58-7.58v0
		c0-4.19,3.39-7.58,7.58-7.58h27.54V36.62z"/>
	<path fill="none" stroke="#000000" stroke-width="1.5" stroke-miterlimit="10" d="M16.66,1.5v27.54c0,4.19-3.39,7.58-7.58,7.58h0
		c-4.19,0-7.58-3.39-7.58-7.58l0-27.54H16.66z"/>
	<path fill="none" stroke="#000000" stroke-width="1.5" stroke-miterlimit="10" d="M33.91,14.93L14.44,34.4
		c-2.96,2.96-7.76,2.96-10.72,0l0,0c-2.96-2.96-2.96-7.76,0-10.72L23.2,4.21L33.91,14.93z"/>
	<circle fill="none" stroke="#000000" stroke-width="1.5" stroke-miterlimit="10" cx="9.08" cy="28.14" r="2.23"/>
	<rect x="26.83" y="26.23" fill="none" stroke="#000000" stroke-width="1.5" stroke-miterlimit="10" width="5.62" height="5.62"/>
	
		<rect x="6.27" y="5.67" transform="matrix(6.123234e-17 -1 1 6.123234e-17 0.6038 17.5595)" fill="none" stroke="#000000" stroke-width="1.5" stroke-miterlimit="10" width="5.62" height="5.62"/>
	
		<rect x="20.82" y="11.68" transform="matrix(0.7071 -0.7071 0.7071 0.7071 -3.3295 20.9536)" fill="none" stroke="#000000" stroke-width="1.5" stroke-miterlimit="10" width="5.62" height="5.62"/>
</g>
</svg>
