<?xml version="1.0" encoding="utf-8"?>
<!-- Generator: Adobe Illustrator 25.4.1, SVG Export Plug-In . SVG Version: 6.00 Build 0)  -->
<svg version="1.1" id="Layer_1" xmlns="http://www.w3.org/2000/svg" xmlns:xlink="http://www.w3.org/1999/xlink" x="0px" y="0px"
	 viewBox="0 0 38.87 38.11" enable-background="new 0 0 38.87 38.11" xml:space="preserve">
<g>
	<g>
		<g>
			<ellipse cx="6.24" cy="14.6" rx="1.09" ry="1.05"/>
			<ellipse cx="10.96" cy="14.6" rx="1.09" ry="1.05"/>
			<ellipse cx="15.67" cy="14.6" rx="1.09" ry="1.05"/>
			<ellipse cx="20.39" cy="14.6" rx="1.09" ry="1.05"/>
		</g>
		<g>
			<ellipse cx="6.24" cy="18.13" rx="1.09" ry="1.05"/>
			<ellipse cx="10.96" cy="18.13" rx="1.09" ry="1.05"/>
			<ellipse cx="15.67" cy="18.13" rx="1.09" ry="1.05"/>
			<ellipse cx="20.39" cy="18.13" rx="1.09" ry="1.05"/>
		</g>
		<g>
			<ellipse cx="6.24" cy="21.67" rx="1.09" ry="1.05"/>
			<ellipse cx="10.96" cy="21.67" rx="1.09" ry="1.05"/>
			<ellipse cx="15.67" cy="21.67" rx="1.09" ry="1.05"/>
			<ellipse cx="20.39" cy="21.67" rx="1.09" ry="1.05"/>
		</g>
		<g>
			<ellipse cx="6.24" cy="25.21" rx="1.09" ry="1.05"/>
			<ellipse cx="10.96" cy="25.21" rx="1.09" ry="1.05"/>
			<ellipse cx="15.67" cy="25.21" rx="1.09" ry="1.05"/>
			<ellipse cx="20.39" cy="25.21" rx="1.09" ry="1.05"/>
		</g>
		<g>
			<ellipse cx="6.24" cy="28.75" rx="1.09" ry="1.05"/>
			<ellipse cx="10.96" cy="28.75" rx="1.09" ry="1.05"/>
			<ellipse cx="15.67" cy="28.75" rx="1.09" ry="1.05"/>
			<ellipse cx="20.39" cy="28.75" rx="1.09" ry="1.05"/>
		</g>
		<g>
			<ellipse cx="6.24" cy="32.28" rx="1.09" ry="1.05"/>
			<ellipse cx="10.96" cy="32.28" rx="1.09" ry="1.05"/>
			<ellipse cx="15.67" cy="32.28" rx="1.09" ry="1.05"/>
			<ellipse cx="20.39" cy="32.28" rx="1.09" ry="1.05"/>
		</g>
	</g>
	<path fill="none" stroke="#000000" stroke-width="1.5" stroke-linejoin="round" stroke-miterlimit="10" d="M31.99,36.36
		L31.99,36.36c-2.96,0-5.36-2.4-5.36-5.36V6.62c0-2.96,2.4-5.36,5.36-5.36h0c2.96,0,5.36,2.4,5.36,5.36V31
		C37.35,33.96,34.95,36.36,31.99,36.36z"/>
	
		<ellipse fill="none" stroke="#000000" stroke-width="1.5" stroke-linejoin="round" stroke-miterlimit="10" cx="31.99" cy="31.28" rx="5.25" ry="5.09"/>
	<ellipse cx="31.99" cy="31.28" rx="1.33" ry="1.29"/>
	<polyline fill="none" stroke="#000000" stroke-width="1.5" stroke-linecap="round" stroke-miterlimit="10" points="31.99,36.36 
		1.52,36.36 1.52,10.52 23.38,10.52 	"/>
</g>
</svg>
