<?xml version="1.0" encoding="utf-8"?>
<!-- Generator: Adobe Illustrator 25.4.1, SVG Export Plug-In . SVG Version: 6.00 Build 0)  -->
<svg version="1.1" id="Layer_1" xmlns="http://www.w3.org/2000/svg" xmlns:xlink="http://www.w3.org/1999/xlink" x="0px" y="0px"
	 viewBox="0 0 49.3 45.5" style="enable-background:new 0 0 49.3 45.5;" xml:space="preserve">
<path d="M48.3,37.5c-0.1-0.1-0.3-0.2-0.5-0.2h-5.7V1.4c0-0.4-0.3-0.7-0.7-0.7H1.5C1.1,0.7,0.8,1,0.8,1.4v37.8l0,0l0,0
	c0,0.6,0,2.7,1.3,4.1c0.9,1,2.2,1.4,3.8,1.5c0,0,0,0,0.1,0h36.7l0,0c4.7,0,5.5-5.1,5.7-6.7C48.5,37.9,48.4,37.7,48.3,37.5z
	 M1.6,39.9c0-0.3,0-0.5,0-0.7c0-0.1,0-0.1,0-0.1l0,0V1.5h39.8v35.9H11.7c-0.4,0-0.6,0.3-0.7,0.6c0,0.3-0.1,0.8-0.2,1.3
	c-0.1,0.2-0.1,0.5-0.2,0.7c-0.5,1.8-1.7,4-4.6,4c-1.5,0-2.6-0.4-3.3-1.2C1.9,42,1.6,40.7,1.6,39.9z M42.7,44L42.7,44L42.7,44h-2.9
	H8.6c1.4-0.9,2.3-2.4,2.7-4.1c0.1-0.2,0.1-0.5,0.1-0.7c0.1-0.4,0.1-0.8,0.1-1.2h29.7h0.7h5.7C47.6,39.4,46.8,44,42.7,44z"/>
</svg>
