<?xml version="1.0" encoding="utf-8"?>
<!-- Generator: Adobe Illustrator 25.4.1, SVG Export Plug-In . SVG Version: 6.00 Build 0)  -->
<svg version="1.1" id="Layer_1" xmlns="http://www.w3.org/2000/svg" xmlns:xlink="http://www.w3.org/1999/xlink" x="0px" y="0px"
	 viewBox="0 0 38.75 38.11" enable-background="new 0 0 38.75 38.11" xml:space="preserve">
<g>
	<rect x="1.52" y="1.5" fill="none" stroke="#000000" stroke-width="1.5" stroke-miterlimit="10" width="35.72" height="11.37"/>
	<line fill="none" stroke="#000000" stroke-width="1.5" stroke-miterlimit="10" x1="1.52" y1="36.61" x2="37.24" y2="36.61"/>
	<g>
		<g>
			<path fill="none" stroke="#000000" stroke-width="1.5" stroke-linejoin="round" stroke-miterlimit="10" d="M4.28,29.91
				c0,1.57,1.3,2.84,2.9,2.84s2.9-1.27,2.9-2.84c0-1.57-2.9-6.32-2.9-6.32S4.28,28.34,4.28,29.91z"/>
			<polygon fill="none" stroke="#000000" stroke-width="1.5" stroke-linejoin="round" stroke-miterlimit="10" points="3.15,12.87 
				3.15,15.86 5.32,17.46 5.32,20.12 9.08,20.12 9.08,17.46 10.94,15.86 10.94,12.87 			"/>
		</g>
		<g>
			<path fill="none" stroke="#000000" stroke-width="1.5" stroke-linejoin="round" stroke-miterlimit="10" d="M29.08,29.91
				c0,1.57,1.3,2.84,2.9,2.84s2.9-1.27,2.9-2.84c0-1.57-2.9-6.32-2.9-6.32S29.08,28.34,29.08,29.91z"/>
			<polygon fill="none" stroke="#000000" stroke-width="1.5" stroke-linejoin="round" stroke-miterlimit="10" points="27.95,12.87 
				27.95,15.86 30.12,17.46 30.12,20.12 33.88,20.12 33.88,17.46 35.74,15.86 35.74,12.87 			"/>
		</g>
		<g>
			<path fill="none" stroke="#000000" stroke-width="1.5" stroke-linejoin="round" stroke-miterlimit="10" d="M16.68,29.91
				c0,1.57,1.3,2.84,2.9,2.84s2.9-1.27,2.9-2.84c0-1.57-2.9-6.32-2.9-6.32S16.68,28.34,16.68,29.91z"/>
			<polygon fill="none" stroke="#000000" stroke-width="1.5" stroke-linejoin="round" stroke-miterlimit="10" points="15.55,12.87 
				15.55,15.86 17.72,17.46 17.72,20.12 21.48,20.12 21.48,17.46 23.34,15.86 23.34,12.87 			"/>
		</g>
	</g>
</g>
</svg>
