<?xml version="1.0" encoding="utf-8"?>
<!-- Generator: Adobe Illustrator 25.4.1, SVG Export Plug-In . SVG Version: 6.00 Build 0)  -->
<svg version="1.1" xmlns="http://www.w3.org/2000/svg" xmlns:xlink="http://www.w3.org/1999/xlink" x="0px" y="0px"
	 viewBox="0 0 33.15 38.12" enable-background="new 0 0 33.15 38.12" xml:space="preserve">
<g id="Layer_1">
	<path fill="none" stroke="#000000" stroke-width="1.5" stroke-linejoin="round" stroke-miterlimit="10" d="M16.57,1.13
		c0,0-5.62,6.09-14.67,6.09v14.64c0,3.99,2.32,7.73,6.24,10.09L16.57,37L25,31.94c3.92-2.35,6.24-6.1,6.24-10.09V7.22
		C22.19,7.22,16.57,1.13,16.57,1.13z"/>
	<g>
		<path fill="none" stroke="#000000" stroke-width="1.5" stroke-miterlimit="10" d="M9.2,21.33c0,4.07,3.3,7.37,7.37,7.37
			s7.37-3.3,7.37-7.37S16.57,8.56,16.57,8.56S9.2,17.26,9.2,21.33z"/>
		<path fill="none" stroke="#000000" stroke-width="1.5" stroke-linecap="round" stroke-miterlimit="10" d="M16.97,24.36
			c1.74,0,3.15-1.41,3.15-3.15"/>
	</g>
</g>
<g id="Layer_2">
</g>
</svg>
