<?xml version="1.0" encoding="utf-8"?>
<!-- Generator: Adobe Illustrator 25.4.1, SVG Export Plug-In . SVG Version: 6.00 Build 0)  -->
<svg version="1.1" xmlns="http://www.w3.org/2000/svg" xmlns:xlink="http://www.w3.org/1999/xlink" x="0px" y="0px"
	 viewBox="0 0 34.67 38.12" enable-background="new 0 0 34.67 38.12" xml:space="preserve">
<g id="Layer_1">
	<rect x="2.34" y="5.88" fill="none" stroke="#000000" stroke-width="1.5" stroke-miterlimit="10" width="30.04" height="29.9"/>
	<path fill="none" stroke="#000000" stroke-width="1.5" stroke-miterlimit="10" d="M12.07,5.88l3.27-3.27
		c1.12-1.12,2.93-1.12,4.04,0l3.27,3.27"/>
	<rect x="5.09" y="8.62" fill="none" stroke="#000000" stroke-width="1.5" stroke-miterlimit="10" width="24.53" height="24.42"/>
	<path fill="none" stroke="#000000" stroke-width="1.5" stroke-miterlimit="10" d="M11.54,33.04v-2.53c0-3.22,2.61-5.83,5.83-5.83h0
		c3.22,0,5.83,2.61,5.83,5.83v2.53"/>
	<path fill="none" stroke="#000000" stroke-width="1.5" stroke-miterlimit="10" d="M17.24,21.93h0.19c1.65,0,2.98-1.34,2.98-2.98
		v-2.43c0-1.65-1.34-2.98-2.98-2.98h-0.19c-1.65,0-2.98,1.34-2.98,2.98v2.43C14.26,20.6,15.6,21.93,17.24,21.93z"/>
	<line fill="none" stroke="#000000" stroke-width="1.5" stroke-miterlimit="10" x1="17.37" y1="24.68" x2="17.37" y2="21.79"/>
</g>
<g id="Layer_2">
</g>
</svg>
