<?xml version="1.0" encoding="utf-8"?>
<!-- Generator: Adobe Illustrator 25.4.1, SVG Export Plug-In . SVG Version: 6.00 Build 0)  -->
<svg version="1.1" id="Layer_1" xmlns="http://www.w3.org/2000/svg" xmlns:xlink="http://www.w3.org/1999/xlink" x="0px" y="0px"
	 viewBox="0 0 38.29 38.12" enable-background="new 0 0 38.29 38.12" xml:space="preserve">
<path fill="none" stroke="#000000" stroke-width="1.5" stroke-miterlimit="10" d="M26.62,27.38c0.67,0.17,1.37,0.29,2.1,0.29
	c4.71,0,8.53-3.82,8.53-8.53s-3.82-8.53-8.53-8.53c-0.43,0-0.84,0.07-1.25,0.13c0.06-0.41,0.13-0.82,0.13-1.25
	c0-4.71-3.82-8.53-8.53-8.53s-8.53,3.82-8.53,8.53c0,0.42,0.07,0.82,0.12,1.23c-0.36-0.05-0.72-0.11-1.09-0.11
	c-4.71,0-8.53,3.82-8.53,8.53s3.82,8.53,8.53,8.53c0.73,0,1.42-0.12,2.1-0.29"/>
<path d="M19.14,28.76C19.14,28.76,19.15,28.76,19.14,28.76C19.15,28.76,19.14,28.76,19.14,28.76
	C19.14,28.76,19.14,28.76,19.14,28.76z"/>
<path fill="none" stroke="#000000" stroke-width="1.5" stroke-miterlimit="10" d="M31.12,16.8c0,0-4.43-0.34-7.75,1.77
	c0.13,0.56,0.2,1.14,0.2,1.74c0,1.55-0.5,2.97-1.15,4.22c-1.25,2.4-3.07,4.05-3.24,4.2c0,0,0,0.02,0,0.02s-0.01,0-0.01,0
	c0.09,0.01,2.72,0.16,5.42-0.72c1.3-0.43,2.62-1.07,3.68-2.13C31.57,22.6,31.12,16.8,31.12,16.8z"/>
<path d="M19.16,28.75C19.16,28.75,19.15,28.76,19.16,28.75C19.16,28.76,19.16,28.76,19.16,28.75
	C19.17,28.76,19.16,28.76,19.16,28.75C19.16,28.76,19.16,28.75,19.16,28.75z"/>
<path fill="none" stroke="#000000" stroke-width="1.5" stroke-miterlimit="10" d="M15.87,24.53c-0.65-1.25-1.15-2.68-1.15-4.22
	c0-0.6,0.08-1.19,0.21-1.76c-3.32-2.09-7.71-1.75-7.71-1.75s-0.45,5.8,2.85,9.11c1.06,1.06,2.38,1.71,3.68,2.13
	c2.56,0.84,5.06,0.74,5.39,0.72C19.1,28.73,17.17,27.03,15.87,24.53z"/>
<path fill="none" stroke="#000000" stroke-width="1.5" stroke-miterlimit="10" d="M19.18,28.73c0.17-0.15,1.99-1.8,3.24-4.2
	c0.65-1.25,1.15-2.68,1.15-4.22c0-0.6-0.07-1.18-0.2-1.74c-0.86-3.84-4.22-6.72-4.22-6.72s-3.35,2.87-4.22,6.69
	c-0.13,0.57-0.21,1.16-0.21,1.76c0,1.55,0.5,2.97,1.15,4.22c1.3,2.5,3.23,4.2,3.27,4.23c0.01,0,0.01,0,0.01,0
	c0,0,0.01-0.01,0.01-0.01"/>
<path d="M19.18,28.73c-0.01,0-0.02,0.02-0.02,0.02c0,0,0,0,0,0s0.01,0,0.01,0c0,0,0.01,0,0.01,0S19.18,28.74,19.18,28.73z"/>
<line fill="none" stroke="#000000" stroke-width="1.5" stroke-miterlimit="10" x1="19.15" y1="28.76" x2="19.15" y2="37.28"/>
</svg>
