<?xml version="1.0" encoding="utf-8"?>
<!-- Generator: Adobe Illustrator 25.4.1, SVG Export Plug-In . SVG Version: 6.00 Build 0)  -->
<svg version="1.1" xmlns="http://www.w3.org/2000/svg" xmlns:xlink="http://www.w3.org/1999/xlink" x="0px" y="0px"
	 viewBox="0 0 33.15 37.31" enable-background="new 0 0 33.15 37.31" xml:space="preserve">
<g id="Layer_1">
	<g>
		<g>
			<path fill="none" stroke="#000000" stroke-width="1.5" stroke-linejoin="round" stroke-miterlimit="10" d="M31.28,1.01v24.76
				c0,2.57-2.08,4.66-4.66,4.66H6.52c-2.57,0-4.66-2.08-4.66-4.66V1.01"/>
			<path fill="none" stroke="#000000" stroke-width="1.5" stroke-linejoin="round" stroke-miterlimit="10" d="M31.28,6.07v24.76
				c0,2.57-2.08,4.66-4.66,4.66H6.52c-2.57,0-4.66-2.08-4.66-4.66V6.07"/>
		</g>
		<g>
			<polyline fill="none" stroke="#000000" stroke-width="1.5" stroke-miterlimit="10" points="11.58,1.01 11.58,8 16.17,12.59 
				20.76,8 20.76,5.87 19.45,4.51 20.76,3.14 20.76,1.01 			"/>
			<line fill="none" stroke="#000000" stroke-width="1.5" stroke-miterlimit="10" x1="16.17" y1="7.48" x2="16.17" y2="1.01"/>
		</g>
		<path fill="none" stroke="#000000" stroke-width="1.5" stroke-linecap="round" stroke-miterlimit="10" d="M16.02,16.56
			c-5.28,1.96-6.82,3.09-6.69,3.76c0.35,1.83,13.02,0.05,14.06,3.5c0.19,0.64-0.06,1.31-0.37,1.83"/>
	</g>
</g>
<g id="Layer_2">
</g>
</svg>
