<?xml version="1.0" encoding="utf-8"?>
<!-- Generator: Adobe Illustrator 25.4.1, SVG Export Plug-In . SVG Version: 6.00 Build 0)  -->
<svg version="1.1" id="Layer_1" xmlns="http://www.w3.org/2000/svg" xmlns:xlink="http://www.w3.org/1999/xlink" x="0px" y="0px"
	 viewBox="0 0 28.12 38.12" enable-background="new 0 0 28.12 38.12" xml:space="preserve">
<path fill="none" stroke="#000000" stroke-width="1.5" stroke-linejoin="round" stroke-miterlimit="10" d="M6.11,3.95
	C8.2,2.11,11.03,1.2,14.6,1.2c2.37,0,4.4,0.41,6.1,1.23c1.69,0.82,2.97,1.95,3.84,3.37c0.87,1.42,1.31,3.02,1.31,4.79
	c0,2.09-0.52,3.79-1.57,5.1s-2.26,2.21-3.65,2.68v0.19c1.8,0.6,3.23,1.6,4.27,2.99s1.57,3.18,1.57,5.36c0,1.96-0.45,3.69-1.35,5.2
	c-0.9,1.5-2.21,2.68-3.94,3.54c-1.72,0.85-3.77,1.28-6.15,1.28c-3.8,0-6.83-0.93-9.09-2.8s-3.46-4.68-3.58-8.45h7.88
	c0.03,1.39,0.43,2.49,1.19,3.3c0.76,0.81,1.87,1.21,3.32,1.21c1.23,0,2.19-0.36,2.87-1.07c0.68-0.71,1.02-1.65,1.02-2.82
	c0-1.52-0.48-2.62-1.45-3.3c-0.97-0.68-2.51-1.02-4.63-1.02h-1.52v-6.6h1.52c1.61,0,2.92-0.28,3.91-0.83s1.49-1.54,1.49-2.97
	c0-1.14-0.32-2.02-0.95-2.66c-0.63-0.63-1.5-0.95-2.61-0.95c-1.2,0-2.1,0.36-2.68,1.09c-0.59,0.73-0.93,1.63-1.02,2.7H2.79
	C2.91,8.39,4.02,5.78,6.11,3.95z"/>
</svg>
