<?xml version="1.0" encoding="utf-8"?>
<!-- Generator: Adobe Illustrator 25.4.1, SVG Export Plug-In . SVG Version: 6.00 Build 0)  -->
<svg version="1.1" id="Layer_1" xmlns="http://www.w3.org/2000/svg" xmlns:xlink="http://www.w3.org/1999/xlink" x="0px" y="0px"
	 viewBox="0 0 38.29 38.12" enable-background="new 0 0 38.29 38.12" xml:space="preserve">
<g>
	<path fill="none" stroke="#000000" stroke-width="1.5" stroke-linejoin="round" stroke-miterlimit="10" d="M7.65,28.99
		c0,1.55,1.26,2.8,2.81,2.8s2.81-1.25,2.81-2.8s-2.81-6.24-2.81-6.24S7.65,27.44,7.65,28.99z"/>
	<polygon fill="none" stroke="#000000" stroke-width="1.5" stroke-linejoin="round" stroke-miterlimit="10" points="5.39,9.45 
		5.39,13.3 8.13,15.36 8.13,18.81 12.9,18.81 12.9,15.36 15.26,13.3 15.26,9.45 	"/>
	<rect x="1.51" y="1.5" fill="none" stroke="#000000" stroke-width="1.5" stroke-miterlimit="10" width="35.28" height="35.12"/>
	<rect x="1.51" y="1.5" fill="none" stroke="#000000" stroke-width="1.5" stroke-miterlimit="10" width="17.64" height="7.95"/>
	
		<line fill="none" stroke="#000000" stroke-width="1.5" stroke-linecap="round" stroke-linejoin="round" stroke-miterlimit="10" x1="31.67" y1="15.6" x2="20.35" y2="15.6"/>
	
		<line fill="none" stroke="#000000" stroke-width="1.5" stroke-linecap="round" stroke-linejoin="round" stroke-miterlimit="10" x1="31.67" y1="29.6" x2="20.35" y2="29.6"/>
	
		<line fill="none" stroke="#000000" stroke-width="1.5" stroke-linecap="round" stroke-linejoin="round" stroke-miterlimit="10" x1="31.67" y1="20.27" x2="20.35" y2="20.27"/>
	
		<line fill="none" stroke="#000000" stroke-width="1.5" stroke-linecap="round" stroke-linejoin="round" stroke-miterlimit="10" x1="31.67" y1="24.93" x2="20.35" y2="24.93"/>
</g>
</svg>
