<?xml version="1.0" encoding="utf-8"?>
<!-- Generator: Adobe Illustrator 25.4.1, SVG Export Plug-In . SVG Version: 6.00 Build 0)  -->
<svg version="1.1" id="Layer_1" xmlns="http://www.w3.org/2000/svg" xmlns:xlink="http://www.w3.org/1999/xlink" x="0px" y="0px"
	 viewBox="0 0 38.29 38.12" enable-background="new 0 0 38.29 38.12" xml:space="preserve">
<path fill="none" stroke="#000000" stroke-width="1.5" stroke-miterlimit="10" d="M36.42,36.26c-1.51,1.5-2.37-0.58-4.5-0.58
	c-2.13,0-2.13,0.68-4.26,0.68c-2.13,0-2.13-0.68-4.26-0.68c-2.13,0-2.13,0.68-4.25,0.68c-2.13,0-2.13-0.68-4.26-0.68
	c-2.13,0-2.13,0.68-4.26,0.68c-2.13,0-2.13-0.68-4.26-0.68s-2.99,2.08-4.5,0.58c-1.5-1.49,0.58-2.36,0.58-4.48
	c0-2.12-0.68-2.12-0.68-4.24c0-2.12,0.68-2.12,0.68-4.24c0-2.12-0.68-2.12-0.68-4.24c0-2.12,0.68-2.12,0.68-4.24
	c0-2.12-0.68-2.12-0.68-4.24c0-2.12,0.68-2.12,0.68-4.24S0.37,3.37,1.88,1.87c1.51-1.5,2.37,0.58,4.5,0.58
	c2.13,0,2.13-0.68,4.26-0.68c2.13,0,2.13,0.68,4.26,0.68c2.13,0,2.13-0.68,4.25-0.68c2.13,0,2.13,0.68,4.26,0.68
	c2.13,0,2.13-0.68,4.26-0.68c2.13,0,2.13,0.68,4.26,0.68s2.99-2.08,4.5-0.58c1.5,1.49-0.58,2.36-0.58,4.48
	c0,2.12,0.68,2.12,0.68,4.24c0,2.12-0.68,2.12-0.68,4.24c0,2.12,0.68,2.12,0.68,4.24c0,2.12-0.68,2.12-0.68,4.24
	c0,2.12,0.68,2.12,0.68,4.24c0,2.12-1.17,2.26-0.67,4.32C36.41,34.18,37.92,34.76,36.42,36.26z"/>
<rect x="9.08" y="9.04" fill="none" stroke="#000000" stroke-width="1.5" stroke-miterlimit="10" width="20.13" height="20.04"/>
</svg>
