<svg xmlns="http://www.w3.org/2000/svg" viewBox="0 0 126.1 222.45"><polygon points="65.08 149.75 55.25 155.53 9.07 129.15 1.67 133.5 28.84 149.01 65.11 169.74 65.08 149.75" style="fill:#ac885e"/><polygon points="55.06 49.97 55.2 129.01 55.25 155.53 65.08 149.75 65.05 134.64 64.92 62.56 85.36 50.55 85.33 32.19 55.06 49.97" style="fill:#888"/><polygon points="85.33 32.19 34.14 2.94 3.87 20.72 55.06 49.97 85.33 32.19" style="fill:#dbdbdb"/><polygon points="3.87 20.72 4.05 126.28 9.07 129.15 55.25 155.53 55.2 129.01 55.06 49.97 3.87 20.72" style="fill:#c5c5c5"/><polygon points="93.91 79.11 94.04 151.19 95.63 152.1 94.04 153.03 94.16 219.51 124.43 201.73 124.18 61.34 93.91 79.11" style="fill:#775f40"/><polygon points="95.63 152.1 94.04 151.19 94.04 153.03 95.63 152.1" style="fill:#775f40"/><polygon points="95.19 44.78 85.36 50.55 64.92 62.56 85.41 74.26 93.91 79.11 124.18 61.34 95.19 44.78" style="fill:#ac885e"/><polygon points="85.41 74.26 64.92 62.56 65.05 134.64 65.08 149.75 65.11 169.74 28.84 149.01 1.67 133.5 1.73 166.72 65.42 203.1 65.42 203.09 94.16 219.51 94.04 153.03 94.04 151.19 93.91 79.11 85.41 74.26" style="fill:#9e7d57"/></svg>