<svg xmlns="http://www.w3.org/2000/svg" viewBox="0 0 274.97 113.92"><polygon points="87.34 18.67 48.92 21.36 65.6 33.23 65.78 25.5 94.14 23.52 214.24 15.12 214.33 9.79 87.34 18.67" style="fill:#ad895f"/><polygon points="145.67 61.74 119.27 63.59 118.45 98.29 145.07 96.43 270.51 87.66 271.32 52.95 145.67 61.74" style="fill:#ddd"/><polygon points="119.27 63.59 119.24 63.57 117.33 62.21 65.78 25.5 65.6 33.23 107.27 62.91 107.27 62.91 107.25 64.41 106.81 90.02 118.45 98.31 118.45 98.29 118.45 98.29 119.27 63.59" style="fill:gray"/><polygon points="271.32 52.95 217.84 14.87 214.24 15.12 94.14 23.52 65.78 25.5 117.33 62.21 119.24 63.57 145.67 61.72 145.67 61.74 271.32 52.95" style="fill:#b0b0b0"/><polygon points="74.21 65.22 65 58.67 15.99 23.77 4.45 15.55 3.64 62.63 3.64 62.73 73.4 112.41 74.18 66.78 74.1 66.73 74.18 66.72 74.21 65.22" style="fill:#715a3c"/><polygon points="48.92 21.36 87.34 18.67 214.33 9.79 202.71 1.51 4.37 15.38 4.58 15.53 4.59 15.53 15.99 23.66 15.99 23.76 65 58.66 74.22 65.22 107.27 62.91 65.6 33.23 48.92 21.36" style="fill:#90734f"/><polygon points="118.45 98.29 118.45 98.31 106.81 90.02 107.25 64.41 107.27 62.91 107.27 62.91 74.22 65.22 74.22 65.22 74.19 66.72 74.19 66.79 73.4 112.41 73.4 112.41 106.46 110.1 106.46 110.1 144.88 107.41 145.07 96.43 118.45 98.29" style="fill:#ac885e"/></svg>