<?xml version="1.0" encoding="utf-8"?>
<!-- Generator: Adobe Illustrator 25.4.1, SVG Export Plug-In . SVG Version: 6.00 Build 0)  -->
<svg version="1.1" id="Layer_1" xmlns="http://www.w3.org/2000/svg" xmlns:xlink="http://www.w3.org/1999/xlink" x="0px" y="0px"
	 viewBox="0 0 275 113.9" style="enable-background:new 0 0 275 113.9;" xml:space="preserve">
<style type="text/css">
	.st0{fill:none;stroke:#231F20;stroke-width:1.5;stroke-linecap:round;stroke-linejoin:round;}
</style>
<polygon class="st0" points="87.3,18.7 48.9,21.4 65.6,33.2 65.8,25.5 94.1,23.5 214.2,15.1 214.3,9.8 "/>
<polygon class="st0" points="145.7,61.7 119.3,63.6 118.4,98.3 145.1,96.4 270.5,87.7 271.3,53 "/>
<polygon class="st0" points="119.3,63.6 119.2,63.6 117.3,62.2 65.8,25.5 65.6,33.2 107.3,62.9 107.3,62.9 107.2,64.4 106.8,90 
	118.4,98.3 118.4,98.3 118.4,98.3 "/>
<polygon class="st0" points="271.3,53 217.8,14.9 214.2,15.1 94.1,23.5 65.8,25.5 117.3,62.2 119.2,63.6 145.7,61.7 145.7,61.7 "/>
<polygon class="st0" points="74.2,65.2 65,58.7 16,23.8 4.4,15.6 3.6,62.6 3.6,62.7 73.4,112.4 74.2,66.8 74.1,66.7 74.2,66.7 "/>
<polygon class="st0" points="48.9,21.4 87.3,18.7 214.3,9.8 202.7,1.5 4.4,15.4 4.6,15.5 4.6,15.5 16,23.7 16,23.8 65,58.7 
	74.2,65.2 107.3,62.9 65.6,33.2 "/>
<polygon class="st0" points="118.4,98.3 118.4,98.3 106.8,90 107.2,64.4 107.3,62.9 107.3,62.9 74.2,65.2 74.2,65.2 74.2,66.7 
	74.2,66.8 73.4,112.4 73.4,112.4 106.5,110.1 106.5,110.1 144.9,107.4 145.1,96.4 "/>
</svg>
