<?xml version="1.0" encoding="utf-8"?>
<!-- Generator: Adobe Illustrator 25.4.1, SVG Export Plug-In . SVG Version: 6.00 Build 0)  -->
<svg version="1.1" id="Layer_1" xmlns="http://www.w3.org/2000/svg" xmlns:xlink="http://www.w3.org/1999/xlink" x="0px" y="0px"
	 viewBox="0 0 126.1 222.4" style="enable-background:new 0 0 126.1 222.4;" xml:space="preserve">
<style type="text/css">
	.st0{fill:none;stroke:#231F20;stroke-width:1.5;stroke-linecap:round;stroke-linejoin:round;}
</style>
<polygon class="st0" points="65.1,149.8 55.2,155.5 9.1,129.1 1.7,133.5 28.8,149 65.1,169.7 "/>
<polygon class="st0" points="55.1,50 55.2,129 55.2,155.5 65.1,149.8 65.1,134.6 64.9,62.6 85.4,50.5 85.3,32.2 "/>
<polygon class="st0" points="85.3,32.2 34.1,2.9 3.9,20.7 55.1,50 "/>
<polygon class="st0" points="3.9,20.7 4.1,126.3 9.1,129.1 55.2,155.5 55.2,129 55.1,50 "/>
<polygon class="st0" points="93.9,79.1 94,151.2 95.6,152.1 94,153 94.2,219.5 124.4,201.7 124.2,61.3 "/>
<polygon class="st0" points="95.6,152.1 94,151.2 94,153 "/>
<polygon class="st0" points="95.2,44.8 85.4,50.5 64.9,62.6 85.4,74.3 93.9,79.1 124.2,61.3 "/>
<polygon class="st0" points="85.4,74.3 64.9,62.6 65.1,134.6 65.1,149.8 65.1,169.7 28.8,149 1.7,133.5 1.7,166.7 65.4,203.1 
	65.4,203.1 94.2,219.5 94,153 94,151.2 93.9,79.1 "/>
</svg>
