<?xml version="1.0" encoding="utf-8"?>
<!-- Generator: Adobe Illustrator 25.4.1, SVG Export Plug-In . SVG Version: 6.00 Build 0)  -->
<svg version="1.1" id="Layer_1" xmlns="http://www.w3.org/2000/svg" xmlns:xlink="http://www.w3.org/1999/xlink" x="0px" y="0px"
	 viewBox="0 0 30.24 32.13" style="enable-background:new 0 0 30.24 32.13;" xml:space="preserve">
<style type="text/css">
	.st0{fill:#29ABE2;}
	.st1{fill:#EB088C;}
	.st2{fill:#FCEE21;}
	.st3{fill:none;stroke:#FCEE21;stroke-miterlimit:10;}
	.st4{fill:none;stroke:#EB088C;stroke-miterlimit:10;}
	.st5{fill:none;stroke:#29ABE2;stroke-miterlimit:10;}
	.st6{fill:none;stroke:#000000;stroke-width:0.25;stroke-miterlimit:10;}
	.st7{fill:none;stroke:#FFFFFF;stroke-width:0.25;stroke-miterlimit:10;}
</style>
<g>
	<path class="st6" d="M3.34,23.66l15.99-1.86c0.5-0.06,0.96-0.3,1.29-0.68l8.03-9.35c1.19-1.38,0.06-3.5-1.75-3.29l-15.99,1.86
		c-0.5,0.06-0.96,0.3-1.29,0.68l-8.03,9.35C0.4,21.75,1.53,23.87,3.34,23.66z"/>
	<path class="st6" d="M13.75,30.01l8.47-13.69c0.26-0.43,0.36-0.94,0.26-1.43l-2.34-12.1c-0.35-1.79-2.71-2.22-3.66-0.67L8.01,15.81
		c-0.26,0.43-0.36,0.94-0.26,1.43l2.34,12.1C10.43,31.13,12.79,31.56,13.75,30.01z"/>
	<path class="st6" d="M2.21,10.62l10.55,12.16c0.33,0.38,0.79,0.62,1.29,0.68l12.25,1.36c1.81,0.2,2.92-1.92,1.73-3.3L17.48,9.36
		c-0.33-0.38-0.79-0.62-1.29-0.68L3.94,7.32C2.13,7.12,1.02,9.24,2.21,10.62z"/>
</g>
</svg>
